<svg xmlns="http://www.w3.org/2000/svg" viewBox="0 0 64 64" aria-hidden="true">
  <path fill="#2c6d70" d="M23.05 48.55l2.09.93c5.15 2.27 8.95 5.32 10.99 8.71H14.27c1.67-2.78 4.51-5.31 8.37-7.41l-.52-.23c-.96-.45-1.86-.94-2.74-1.45-5.72 3.6-9.19 8.3-9.8 13.28-.06.45.09.88.39 1.2.3.3.68.44 1.1.41l.3-.03c.66-.06 1.17-.58 1.27-1.29.1-.77.3-1.53.57-2.28h23.98c.27.75.47 1.51.58 2.28.1.71.61 1.24 1.25 1.29l.29.02h.03c.42.04.81-.1 1.09-.4.31-.31.45-.75.4-1.19-.73-6.01-5.63-11.59-13.46-15.31l-1.59-.71c-5.81-2.48-9.91-5.82-11.89-9.57h11.08c.61 0 1.1-.49 1.1-1.1 0-.61-.49-1.1-1.1-1.1H12.99c-.29-.99-.45-1.99-.45-3.02 0-1.42.3-2.82.87-4.18h14.41c.61 0 1.1-.49 1.1-1.1 0-.61-.49-1.1-1.1-1.1H14.59c1.7-2.57 4.43-4.92 8.03-6.88-.39-.18-.76-.36-1.14-.55-.12-.07-.24-.12-.36-.18-.6-.31-1.18-.62-1.77-.95-6.38 3.98-9.88 9.27-9.88 14.94 0 5.93 4.94 12.12 13.57 16.22Z"/>
  <path fill="#2c6d70" d="M31.72 43.09c-.15-.17-.28-.34-.39-.53-.64.49-1.31.96-2.03 1.4-.5.31-1.02.6-1.54.89l.53.23c.95.45 1.85.93 2.73 1.43.93-.58 1.8-1.2 2.6-1.84-.33-.12-.64-.31-.9-.57l-1-.98ZM19.91 14.4c.75.45 1.52.87 2.31 1.27.79.4 1.59.77 2.41 1.11.35.14.71.31 1.05.46.03.02.07.04.1.07 2.98 1.39 5.46 3 7.39 4.81.84-.53 1.94-.52 2.77.1l1.68 1.26c.07.06.15.06.24.02.12-.07.26-.11.4-.18-1.79-2.64-4.39-5-7.78-7.03-.03-.02-.06-.06-.09-.08-1.38-.83-2.91-1.6-4.58-2.31-.35-.14-.71-.31-1.05-.46-4.84-2.24-8.39-5.11-10.38-8.33h21.67c-1.68 2.72-4.47 5.21-8.24 7.26.03.01.06.03.08.04.52.23 1.03.47 1.51.73.12.07.23.12.35.19.38.2.75.4 1.1.6.08.04.15.09.22.12 5.42-3.38 8.75-7.64 9.63-12.35.08-.44-.04-.89-.33-1.24C40.09.17 39.71-.01 39.3 0l-.36.01c-.62.02-1.15.5-1.28 1.16-.12.59-.3 1.17-.51 1.74H13.27c-.22-.58-.39-1.16-.51-1.75-.13-.66-.66-1.14-1.28-1.15L11.1 0c-.4-.01-.78.17-1.05.47C9.77.82 9.66 1.26 9.73 1.7 10.65 6.58 14.17 10.97 19.91 14.4ZM42.38 37.13c2.1 0 3.81-1.72 3.81-3.84 0-2.13-1.71-3.85-3.81-3.85-2.11 0-3.81 1.72-3.81 3.85 0 2.12 1.7 3.84 3.81 3.84Z"/>
  <path fill="#2c6d70" d="M40.65 24.35c-.29.36-.66.66-1.1.82-.25.1-.5.2-.74.32-.83.4-1.8.31-2.53-.24l-1.68-1.26c-.1-.08-.22-.06-.31.02l-.99 1.03c-.09.08-.1.22-.03.32l1.27 1.74c.52.73.61 1.68.23 2.49-.12.25-.23.52-.32.78-.31.86-1.05 1.48-1.93 1.61l-2.07.32c-.11.02-.2.12-.2.24v1.47c0 .12.09.22.2.24l2.07.32c.88.14 1.62.75 1.93 1.61.09.28.2.53.32.79.38.81.29 1.77-.23 2.48l-1.27 1.74c-.07.1-.06.24.03.33l.99 1.02c.09.09.21.1.31.02l1.67-1.26c.43-.32.94-.49 1.46-.49.2 0 .41.03.61.08 0 .01.01.01.02.01.14.04.3.09.44.15.24.12.5.23.75.32.85.31 1.46 1.05 1.59 1.94l.31 2.13c.02.12.12.21.23.21h1.4c.12 0 .22-.09.23-.21l.32-2.13c.13-.88.74-1.63 1.59-1.94.25-.09.5-.2.74-.31.83-.41 1.8-.31 2.53.23l1.68 1.26c.1.08.22.07.3-.02l1-1.02c.09-.09.1-.23.02-.33l-1.26-1.74c-.53-.72-.62-1.68-.23-2.49.12-.25.22-.51.32-.78.3-.85 1.04-1.47 1.93-1.61l2.06-.32c.12-.02.21-.12.21-.24v-1.47c0-.12-.09-.22-.21-.24l-2.06-.32c-.89-.13-1.63-.75-1.93-1.61-.1-.26-.2-.53-.32-.78-.39-.82-.3-1.77.23-2.49l1.26-1.74c.08-.1.07-.24-.02-.32l-1-1.03c-.08-.09-.21-.09-.3-.02l-1.68 1.26c-.73.55-1.7.64-2.53.24-.24-.12-.49-.22-.74-.32-.85-.31-1.46-1.05-1.59-1.94l-.32-2.13c-.01-.12-.11-.21-.23-.21h-1.4c-.11 0-.21.09-.23.21l-.31 2.13c-.07.4-.23.75-.45 1.06-.01.04-.02.06-.03.08ZM42.38 27.23c3.31 0 6.01 2.71 6.01 6.06 0 3.33-2.7 6.05-6.01 6.05-3.32 0-6.01-2.71-6.01-6.05 0-3.34 2.69-6.06 6.01-6.06Z"/>
</svg>
